<svg xmlns="http://www.w3.org/2000/svg" width="57.964" height="46.051" viewBox="0 0 57.964 46.051">
    <path id="quote-right"
          d="M25.118,6.28V29.305A16.309,16.309,0,0,1,23.793,35.8a16.586,16.586,0,0,1-8.928,8.928,16.332,16.332,0,0,1-6.493,1.326H6.278a2.012,2.012,0,0,1-1.472-.621,2.012,2.012,0,0,1-.621-1.472V39.771A2.012,2.012,0,0,1,4.806,38.3a2.012,2.012,0,0,1,1.472-.621H8.372a8.067,8.067,0,0,0,5.92-2.454,8.067,8.067,0,0,0,2.454-5.92V28.258a3.128,3.128,0,0,0-3.14-3.14H6.28a6.052,6.052,0,0,1-4.448-1.832A6.062,6.062,0,0,1,0,18.839V6.28A6.052,6.052,0,0,1,1.832,1.832,6.063,6.063,0,0,1,6.28,0h12.56a6.052,6.052,0,0,1,4.448,1.832A6.063,6.063,0,0,1,25.119,6.28Zm32.845,0V29.305A16.309,16.309,0,0,1,56.639,35.8a16.586,16.586,0,0,1-8.928,8.928,16.332,16.332,0,0,1-6.493,1.326H39.124a2.122,2.122,0,0,1-2.094-2.094V39.771a2.122,2.122,0,0,1,2.094-2.094h2.094A8.377,8.377,0,0,0,49.591,29.3V28.258a3.128,3.128,0,0,0-3.14-3.14H39.125a6.256,6.256,0,0,1-6.28-6.28V6.28a6.052,6.052,0,0,1,1.832-4.448A6.063,6.063,0,0,1,39.125,0h12.56a6.052,6.052,0,0,1,4.448,1.832A6.063,6.063,0,0,1,57.965,6.28Z"
          fill="#EE9727" opacity="0.07"/>
</svg>
